<svg width="220" height="51" viewBox="0 0 220 51" fill="none" xmlns="http://www.w3.org/2000/svg">
<path d="M88.8039 31.468C88.9106 42.5611 80.4395 51.1863 69.2361 50.9969C65.075 50.9955 61.0409 49.5613 57.8101 46.9348L57.3191 49.76H48.043V0H58.9384V15.2224C64.0247 11.3649 71.7701 11.032 77.5212 13.4907C84.7391 16.4686 88.8862 23.756 88.8039 31.468ZM77.9085 31.4314C77.9573 27.3692 75.7739 23.585 72.0049 22.0915C65.2963 19.4801 58.3346 24.0798 58.4108 31.4314C58.3193 38.8654 65.092 43.4896 71.9317 40.8782C75.713 39.3633 77.9573 35.5393 77.9085 31.4314Z" fill="#F2F9FF"/>
<path d="M111.25 41.5319C114.79 41.5533 117.41 40.2491 118.462 36.694C118.861 35.258 119.045 33.7707 119.008 32.2806V13.1365H129.94V32.6318C129.94 38.4135 128.561 43.2301 124.615 46.7761C118.462 52.347 104.044 52.3501 97.8877 46.7761C93.9387 43.227 92.5696 38.4196 92.5635 32.6318V13.1365H103.495V32.2806C103.462 33.7633 103.64 35.2432 104.023 36.6757C105.035 40.2705 107.713 41.5472 111.25 41.5319Z" fill="#F2F9FF"/>
<path d="M176.257 31.468C176.363 42.5611 167.889 51.1863 156.689 50.9969C152.528 50.996 148.493 49.5617 145.263 46.9348L144.763 49.76H135.496V0H146.391V15.2224C151.477 11.3649 159.223 11.032 164.974 13.4907C172.207 16.4686 176.336 23.756 176.257 31.468ZM165.361 31.4314C165.41 27.3692 163.227 23.585 159.455 22.0915C152.746 19.4801 145.787 24.0798 145.863 31.4314C145.772 38.8654 152.545 43.4896 159.384 40.8782C163.166 39.3633 165.41 35.5393 165.361 31.4314Z" fill="#F2F9FF"/>
<path d="M179.239 31.4681C179.166 23.7255 183.447 16.4442 190.699 13.509C194.861 11.707 201.085 11.371 205.369 13.1547C207.129 13.8485 208.78 14.794 210.27 15.9616L210.727 13.1364H220V49.76H210.727L210.233 46.9715C208.735 48.1326 207.079 49.0717 205.314 49.76C201.045 51.5376 194.892 51.1894 190.735 49.3904C183.49 46.4675 179.151 39.2228 179.239 31.4681ZM190.135 31.4314C190.086 35.5394 192.333 39.3725 196.111 40.8782C198.546 41.8434 201.257 41.8434 203.692 40.8782C207.501 39.3786 209.693 35.5424 209.635 31.4314C209.702 24.0737 202.771 19.4862 196.041 22.0915C192.284 23.585 190.089 27.3692 190.135 31.4314Z" fill="#F2F9FF"/>
<path d="M16.7197 50.5448C26.3527 52.1728 36.8456 48.4955 40.6359 39.1006C41.6541 36.6021 42.1631 33.925 42.1332 31.2267V25.0846L16.7197 50.5448ZM0 1.73781V20.7994L11.1424 9.61779L19.0708 1.71948L0 1.73781Z" fill="#F2F9FF"/>
<path d="M42.133 1.73169V13.1241C32.4177 22.8549 17.8234 37.4757 8.11111 47.2004C5.73213 45.5812 3.76374 43.4276 2.36288 40.9115C0.962026 38.3953 0.167443 35.5862 0.0424805 32.708L30.9021 1.79888L30.957 1.85386V1.73169H42.133Z" fill="#F2F9FF"/>
</svg>
